# xmcd
#
# Track frame offsets: 
#        150
#        15786
#        32811
#        50726
#        63811
#        76974
#        95856
#        116036
#        131764
#        150134
#        173479
#        188526
#
# Disc length: 2764 seconds
#
# Revision: 0
# Processed by: cddbd v1.5.2PL0 Copyright (c) Steve Scherf et al.
# Submitted via: ExactAudioCopy v1.3
#
DISCID=890aca0c
DTITLE=The Nighthawks - Still Wild
DYEAR=1999
DGENRE=Blues Rock
TTITLE0=Tiger In Your Tank
TTITLE1=The Wild One
TTITLE2=Cry Like A Man
TTITLE3=Read Way Back
TTITLE4=Guard My Heart
TTITLE5=Jump Into My Fire
TTITLE6=Nobody But You
TTITLE7=I Don't Play
TTITLE8=Washed My Hands
TTITLE9=That's The Way Love Is
TTITLE10=Illustrated Man
TTITLE11=Slow Dance
EXTD=
EXTT0=
EXTT1=
EXTT2=
EXTT3=
EXTT4=
EXTT5=
EXTT6=
EXTT7=
EXTT8=
EXTT9=
EXTT10=
EXTT11=
PLAYORDER=
